<svg width="62" height="62" viewBox="0 0 62 62" fill="none" xmlns="http://www.w3.org/2000/svg">
<circle cx="31" cy="31" r="31" fill="#2266E2"/>
<g clip-path="url(#clip0_43_10076)">
<path d="M15.2702 27.8698C13.9797 28.3002 13.848 30.0735 15.0608 30.6898L22.9171 34.6815C23.3696 34.9114 23.9124 34.8706 24.3254 34.5756L33.2337 28.2125C33.703 27.8773 34.2813 28.4556 33.946 28.9249L27.5841 37.8317C27.289 38.2447 27.2482 38.7875 27.4781 39.2401L31.4725 47.1014C32.0887 48.3142 33.862 48.1826 34.2924 46.892L42.8394 21.2613C43.2389 20.0632 42.099 18.9233 40.9009 19.3228L15.2702 27.8698Z" fill="white"/>
</g>
<defs>
<clipPath id="clip0_43_10076">
<rect width="32.6828" height="32.6828" fill="white" transform="translate(10.2129 29.3228) rotate(-45)"/>
</clipPath>
</defs>
</svg>
