<svg width="62" height="62" viewBox="0 0 62 62" fill="none" xmlns="http://www.w3.org/2000/svg">
<circle cx="31" cy="31" r="31" fill="#2266E2"/>
<path d="M40.3623 22.9635C41.3495 24.2335 41.9374 25.8294 41.9374 27.5625C41.9374 30.4166 40.3431 32.8984 37.9966 34.1658C37.1851 34.6041 36.2089 34.334 35.5567 33.6819L28.318 26.4431C27.6658 25.791 27.3957 24.8148 27.834 24.0033C29.1015 21.6568 31.5833 20.0625 34.4374 20.0625C36.1706 20.0625 37.7664 20.6504 39.0365 21.6377L41.8996 18.7746C42.2657 18.4085 42.8593 18.4085 43.2254 18.7746C43.5915 19.1407 43.5915 19.7343 43.2254 20.1004L40.3623 22.9635ZM20.1004 43.2254L22.9634 40.3624C24.2334 41.3496 25.8292 41.9375 27.5624 41.9375C30.4165 41.9375 32.8982 40.3432 34.1657 37.9967C34.604 37.1852 34.3339 36.209 33.6817 35.5569L26.443 28.3181C25.7908 27.666 24.8146 27.3959 24.0032 27.8342C21.6566 29.1016 20.0624 31.5834 20.0624 34.4375C20.0624 36.1707 20.6503 37.7666 21.6376 39.0366L18.7746 41.8996C18.4085 42.2657 18.4085 42.8593 18.7746 43.2254C19.1407 43.5915 19.7343 43.5915 20.1004 43.2254Z" fill="white"/>
</svg>
