<svg width="26" height="26" viewBox="0 0 26 26" fill="none" xmlns="http://www.w3.org/2000/svg">
<path d="M22.3623 4.96354C23.3495 6.23355 23.9374 7.82938 23.9374 9.56251C23.9374 12.4166 22.3431 14.8984 19.9966 16.1658C19.1851 16.6041 18.2089 16.334 17.5567 15.6819L10.318 8.44313C9.66585 7.791 9.39575 6.81476 9.83404 6.00331C11.1015 3.65676 13.5833 2.06251 16.4374 2.06251C18.1706 2.06251 19.7664 2.65043 21.0365 3.6377L23.8996 0.774587C24.2657 0.408471 24.8593 0.408471 25.2254 0.774587C25.5915 1.1407 25.5915 1.7343 25.2254 2.10041L22.3623 4.96354ZM2.10041 25.2254L4.96341 22.3624C6.23341 23.3496 7.82923 23.9375 9.56236 23.9375C12.4165 23.9375 14.8982 22.3432 16.1657 19.9967C16.604 19.1852 16.3339 18.209 15.6817 17.5569L8.44298 10.3181C7.79085 9.66597 6.8146 9.39588 6.00316 9.83417C3.6566 11.1016 2.06236 13.5834 2.06236 16.4375C2.06236 18.1707 2.65027 19.7666 3.63756 21.0366L0.774587 23.8996C0.408471 24.2657 0.408471 24.8593 0.774587 25.2254C1.1407 25.5915 1.7343 25.5915 2.10041 25.2254Z" fill="white"/>
</svg>
