<svg width="57" height="65" viewBox="0 0 57 65" fill="none" xmlns="http://www.w3.org/2000/svg">
<path d="M9 43.3333V30.3333H11.1667C11.7413 30.3333 12.2924 30.5615 12.6987 30.9679C13.1051 31.3742 13.3333 31.9253 13.3333 32.4999V41.1666C13.3333 41.7412 13.1051 42.2923 12.6987 42.6987C12.2924 43.105 11.7413 43.3333 11.1667 43.3333H9ZM26.3333 32.4999C26.3333 31.9253 26.5616 31.3742 26.9679 30.9679C27.3743 30.5615 27.9254 30.3333 28.5 30.3333C29.0746 30.3333 29.6257 30.5615 30.0321 30.9679C30.4384 31.3742 30.6667 31.9253 30.6667 32.4999V41.1666C30.6667 41.7412 30.4384 42.2923 30.0321 42.6987C29.6257 43.105 29.0746 43.3333 28.5 43.3333C27.9254 43.3333 27.3743 43.105 26.9679 42.6987C26.5616 42.2923 26.3333 41.7412 26.3333 41.1666V32.4999Z" fill="#9747FF"/>
<path fill-rule="evenodd" clip-rule="evenodd" d="M0.333332 6.5C0.333332 4.77609 1.01815 3.12279 2.23714 1.90381C3.45612 0.684819 5.10943 0 6.83333 0L42.397 0L56.6667 14.2697V58.5C56.6667 60.2239 55.9818 61.8772 54.7629 63.0962C53.5439 64.3152 51.8906 65 50.1667 65H6.83333C5.10943 65 3.45612 64.3152 2.23714 63.0962C1.01815 61.8772 0.333332 60.2239 0.333332 58.5V6.5ZM11.1667 26H4.66667V47.6667H11.1667C12.8906 47.6667 14.5439 46.9818 15.7629 45.7629C16.9818 44.5439 17.6667 42.8906 17.6667 41.1667V32.5C17.6667 30.7761 16.9818 29.1228 15.7629 27.9038C14.5439 26.6848 12.8906 26 11.1667 26ZM28.5 26C26.7761 26 25.1228 26.6848 23.9038 27.9038C22.6848 29.1228 22 30.7761 22 32.5V41.1667C22 42.8906 22.6848 44.5439 23.9038 45.7629C25.1228 46.9818 26.7761 47.6667 28.5 47.6667C30.2239 47.6667 31.8772 46.9818 33.0962 45.7629C34.3152 44.5439 35 42.8906 35 41.1667V32.5C35 30.7761 34.3152 29.1228 33.0962 27.9038C31.8772 26.6848 30.2239 26 28.5 26ZM39.3333 47.6667V26H52.3333V34.6667H48V30.3333H43.6667V43.3333H48V39H52.3333V47.6667H39.3333Z" fill="#9747FF"/>
</svg>
