<svg width="53" height="53" viewBox="0 0 53 53" fill="none" xmlns="http://www.w3.org/2000/svg">
<path d="M26.5 0.5C30.4264 0.502269 34.3012 1.39377 37.8338 3.1076C41.3664 4.82143 44.4649 7.31307 46.8969 10.3956C49.3289 13.478 51.0312 17.0713 51.876 20.9057C52.7208 24.7401 52.6862 28.716 51.7748 32.5352C50.8634 36.3543 49.0989 39.9174 46.6137 42.9571C44.1284 45.9968 40.987 48.4342 37.4251 50.0863C33.8633 51.7384 29.9735 52.5624 26.0477 52.4963C22.1219 52.4303 18.262 51.476 14.7578 49.705L14.3645 49.4938L2.51825 52.4513C2.29027 52.5086 2.05256 52.5158 1.82153 52.4723C1.5905 52.4288 1.37165 52.3358 1.18009 52.1995C0.988525 52.0632 0.828805 51.887 0.711951 51.6831C0.595098 51.4791 0.523892 51.2522 0.50325 51.018V50.7515L0.54875 50.4817L3.50625 38.6387L3.3015 38.2487C1.81425 35.321 0.898742 32.1366 0.604 28.866L0.52275 27.6245L0.5 26.5C0.5 19.6044 3.23928 12.9912 8.11522 8.11522C12.9912 3.23928 19.6044 0.5 26.5 0.5ZM28.125 29.75H18.375L18.0825 29.776C17.7078 29.8438 17.3689 30.0411 17.1248 30.3333C16.8807 30.6256 16.747 30.9942 16.747 31.375C16.747 31.7558 16.8807 32.1244 17.1248 32.4167C17.3689 32.7089 17.7078 32.9062 18.0825 32.974L18.375 33H28.125L28.4175 32.974C28.7922 32.9062 29.1311 32.7089 29.3752 32.4167C29.6193 32.1244 29.753 31.7558 29.753 31.375C29.753 30.9942 29.6193 30.6256 29.3752 30.3333C29.1311 30.0411 28.7922 29.8438 28.4175 29.776L28.125 29.75ZM34.625 20H18.375L18.0825 20.026C17.7078 20.0938 17.3689 20.2911 17.1248 20.5833C16.8807 20.8756 16.747 21.2442 16.747 21.625C16.747 22.0058 16.8807 22.3744 17.1248 22.6667C17.3689 22.9589 17.7078 23.1562 18.0825 23.224L18.375 23.25H34.625L34.9175 23.224C35.2922 23.1562 35.6311 22.9589 35.8752 22.6667C36.1193 22.3744 36.253 22.0058 36.253 21.625C36.253 21.2442 36.1193 20.8756 35.8752 20.5833C35.6311 20.2911 35.2922 20.0938 34.9175 20.026L34.625 20Z" fill="#9747FF"/>
</svg>
