<svg width="57" height="43" viewBox="0 0 57 43" fill="none" xmlns="http://www.w3.org/2000/svg">
<path fill-rule="evenodd" clip-rule="evenodd" d="M1.1675 19.3258C1.74424 18.6856 2.55166 18.3005 3.41221 18.2554C4.27276 18.2103 5.116 18.5088 5.7565 19.0853L16.592 28.8353C17.2129 29.417 17.581 30.219 17.6171 31.0691C17.6533 31.9192 17.3546 32.7495 16.7853 33.3818C16.216 34.0141 15.4214 34.3979 14.5722 34.4508C13.723 34.5038 12.8869 34.2216 12.2435 33.6648L1.408 23.9148C0.767724 23.3381 0.382703 22.5307 0.337603 21.6701C0.292504 20.8096 0.591017 19.9663 1.1675 19.3258Z" fill="#9747FF"/>
<path fill-rule="evenodd" clip-rule="evenodd" d="M16.8325 9.57583C17.409 10.2163 17.7075 11.0596 17.6624 11.9201C17.6173 12.7807 17.2323 13.5881 16.592 14.1648L5.7565 23.9148C5.44109 24.2103 5.06991 24.4399 4.66468 24.5902C4.25946 24.7405 3.82833 24.8085 3.39652 24.7901C2.96471 24.7717 2.5409 24.6674 2.14989 24.4833C1.75888 24.2992 1.40853 24.0389 1.11933 23.7177C0.830136 23.3965 0.607907 23.0209 0.465649 22.6128C0.323392 22.2046 0.263965 21.7723 0.290846 21.3409C0.317726 20.9095 0.430374 20.4879 0.622198 20.1006C0.814021 19.7133 1.08117 19.3681 1.408 19.0853L12.2435 9.33534C12.884 8.75885 13.7272 8.46034 14.5878 8.50543C15.4483 8.55053 16.2558 8.93555 16.8325 9.57583ZM55.8325 19.3258C56.409 19.9663 56.7075 20.8096 56.6624 21.6701C56.6173 22.5307 56.2323 23.3381 55.592 23.9148L44.7565 33.6648C44.4411 33.9603 44.0699 34.1899 43.6647 34.3402C43.2595 34.4905 42.8283 34.5585 42.3965 34.5401C41.9647 34.5217 41.5409 34.4174 41.1499 34.2333C40.7589 34.0492 40.4085 33.7889 40.1193 33.4677C39.8301 33.1465 39.6079 32.7709 39.4657 32.3628C39.3234 31.9546 39.264 31.5223 39.2908 31.0909C39.3177 30.6595 39.4304 30.2379 39.6222 29.8506C39.814 29.4633 40.0812 29.1181 40.408 28.8353L51.2435 19.0853C51.884 18.5088 52.7272 18.2103 53.5878 18.2554C54.4484 18.3005 55.2558 18.6856 55.8325 19.3258Z" fill="#9747FF"/>
<path fill-rule="evenodd" clip-rule="evenodd" d="M40.1675 9.5758C40.7442 8.93552 41.5517 8.5505 42.4122 8.5054C43.2728 8.4603 44.116 8.75882 44.7565 9.3353L55.592 19.0853C56.2129 19.667 56.581 20.469 56.6171 21.3191C56.6533 22.1691 56.3546 22.9995 55.7853 23.6318C55.216 24.2641 54.4214 24.6479 53.5722 24.7008C52.723 24.7537 51.8869 24.4715 51.2435 23.9148L40.408 14.1648C39.7677 13.5881 39.3827 12.7807 39.3376 11.9201C39.2925 11.0595 39.591 10.2163 40.1675 9.5758ZM34.2297 0.488804C34.6417 0.600976 35.0274 0.7932 35.365 1.0545C35.7026 1.31579 35.9854 1.64104 36.1973 2.01166C36.4092 2.38228 36.5459 2.79101 36.5998 3.2145C36.6537 3.63799 36.6236 4.06794 36.5112 4.4798L26.7613 40.2298C26.649 40.6417 26.4567 41.0274 26.1954 41.3649C25.9341 41.7025 25.6089 41.9853 25.2383 42.1971C24.8677 42.409 24.459 42.5458 24.0355 42.5997C23.612 42.6536 23.1821 42.6236 22.7703 42.5113C22.3584 42.3991 21.9727 42.2068 21.6351 41.9455C21.2976 41.6842 21.0148 41.3589 20.8029 40.9883C20.5911 40.6177 20.4543 40.209 20.4004 39.7856C20.3465 39.3621 20.3765 38.9322 20.4887 38.5203L30.2387 2.7703C30.3509 2.3584 30.5431 1.97263 30.8044 1.63504C31.0657 1.29744 31.391 1.01463 31.7616 0.80276C32.1322 0.590892 32.541 0.454116 32.9644 0.400247C33.3879 0.346377 33.8179 0.376469 34.2297 0.488804Z" fill="#9747FF"/>
</svg>
